<svg id="Layer_1" data-name="Layer 1" xmlns="http://www.w3.org/2000/svg" viewBox="0 0 149.47 65.95"><defs><style>.cls-1{fill:#ed1225;}</style></defs><title>Vector Smart Object11</title><path class="cls-1" d="M139.82,9.66A32.78,32.78,0,0,0,116.54,0H32.83A33,33,0,0,0,9.66,56.29a32.79,32.79,0,0,0,23.19,9.66h83.66a33,33,0,0,0,23.3-56.29Zm-3.56,43.07a27.84,27.84,0,0,1-19.75,8.18H32.85A27.94,27.94,0,0,1,32.85,5h83.69a27.94,27.94,0,0,1,19.72,47.7Z"/><path class="cls-1" d="M54.8,43.34a2,2,0,1,1-2-2,2,2,0,0,1,2,2m23.74-24c1.8,1-4.75,11.13-15.08,16.5-.75,3.2.07,5.34.78,5.24,2.16-.65,1.26-6,1.26-6l4.19-2c1.55,4.85-1,12-5.85,12.19C57.64,45.09,58,38,58,38l-3.68,1.13,1-2.8,2.88-.75c4.2-14.18,17.31-17.89,20.26-16.25M64.46,33.05c2.43-.49,11.94-10.62,10-10.44-3.94,1-10.75,10-10,10.44m7.69-.73v2s2.66-1.73,2.86-1.41c.07.91-3.29,8.59-3.36,9.75-.06.56.24,2.62,2,2.62a4.41,4.41,0,0,0,2-.52A29.48,29.48,0,0,0,81,40.65a6.48,6.48,0,0,0-.37,3.07c.28,1.36,1.72,1.92,3.26,1.36a12.42,12.42,0,0,0,4.27-2.83c-.11-.29-.54-1.66-.54-1.66s-1.37,1.29-1.71,1.13,4-13,4-13H85.07c-.72,3.25-4.85,11.73-7.65,12.1-1-.07,3.38-9.75,3.54-10.84.32-1.43-.74-2.09-2-1.8-1.34.46-6.79,4.1-6.79,4.1m29.21-3.56h4.55L98.54,51.91h-4.6s2.59-8.9,3.13-9.6c-3.66,4.63-6.92,2.79-7.49-1a11.66,11.66,0,0,1,5.1-11.52c3.77-2.35,5.6-.57,6.13.34.1-.22.56-1.33.56-1.33M99.47,33.2c0-1.94-1.32-1.92-2.4-.69-.41.47-2.63,3.84-2.56,6.53.15,2.28,1.16,1.68,1.81,1.32,1.52-1,3-4.93,3.15-7.16M30.7,45.29c4.09,0,9.06-11.82,11.23-16.28.42-.87.66-1.51.89-1.53.77.82-6.38,13.52-2.41,17a3,3,0,0,0,1.4.77c3.82.77,6.51-4.07,8.8-6.63l-1.15-1.15c-.77.89-1.66,3.07-2.3,1.92-1.27-2,6.47-23.5,6.47-23.5H46.35c-.76,1.28-8.88,19.67-10.42,19.93-.25.12-.38-.13-.38-.39.89-6.89,2.72-12.9,4.89-19.54H33.16c-4.21,11.74-4.25,11.89-8.08,19.67-1.91,3.58-4.73,5.87-2.69.26H15.76c-1.28,3.44-1.82,9.13,2.29,9.51h.24c4.54,0,9.47-11.57,10-12.07-.38,4-2.19,8.69.13,11.1a3.31,3.31,0,0,0,2.3,1m79.67-4.15c1.63,2.37,6.26-2.08,6.26-2.08l1.07,1.65s-3.63,4.68-7.85,4.59a5.29,5.29,0,0,1-3.93-1.64c-.41.28-1.93,1.19-1.93,1.19l-.8-2.17s1.15-.62,1.69-.95c-1.24-10.91,9.67-14.89,13.65-12.66,2.7,1.63.6,7.47-8.16,12.07m-.29-2c4.71-3.74,6.72-7.25,5.73-7.94s-3,1-4.28,3.26-1.64,4.35-1.45,4.67m9.74,3.37a4.57,4.57,0,0,0,4,2.79,7.93,7.93,0,0,0,4-1.29c5.92-3.23,7.38-11.31,7.27-12.83,0-3.26-2.31-2.8-2.69-2.68-3.17,1.06-5.94,5-5.94,5l1.37,1.37s1.3-2.48,2.56-2.48-.74,4.84-1.06,5.55c-1.65,3.63-4.64,5.19-5.45,2-1-5.27,6.17-11,6.17-11h-4.88s-8.19,6.38-5.32,13.52"/></svg>